<mxfile host="app.diagrams.net" modified="2023-02-10T13:53:36.969Z" agent="5.0 (Macintosh; Intel Mac OS X 10_15_7) AppleWebKit/537.36 (KHTML, like Gecko) Chrome/107.0.0.0 Safari/537.36" etag="EhaH1MbbOIBvpEdvtS3Y" version="20.8.19" type="github">
  <diagram name="第 1 页" id="T89ROwZX2rYlSDMPnilw">
    <mxGraphModel dx="1026" dy="683" grid="1" gridSize="10" guides="1" tooltips="1" connect="1" arrows="1" fold="1" page="1" pageScale="1" pageWidth="827" pageHeight="1169" math="0" shadow="0">
      <root>
        <mxCell id="0" />
        <mxCell id="1" parent="0" />
        <mxCell id="U2mL5AtgfMwPIUuoWqq_-3" value="" style="edgeStyle=orthogonalEdgeStyle;rounded=0;orthogonalLoop=1;jettySize=auto;html=1;" edge="1" parent="1" source="U2mL5AtgfMwPIUuoWqq_-1" target="U2mL5AtgfMwPIUuoWqq_-2">
          <mxGeometry relative="1" as="geometry">
            <Array as="points">
              <mxPoint x="390" y="190" />
              <mxPoint x="390" y="90" />
            </Array>
          </mxGeometry>
        </mxCell>
        <mxCell id="U2mL5AtgfMwPIUuoWqq_-51" style="edgeStyle=orthogonalEdgeStyle;rounded=0;orthogonalLoop=1;jettySize=auto;html=1;" edge="1" parent="1" source="U2mL5AtgfMwPIUuoWqq_-1" target="U2mL5AtgfMwPIUuoWqq_-50">
          <mxGeometry relative="1" as="geometry" />
        </mxCell>
        <mxCell id="U2mL5AtgfMwPIUuoWqq_-66" style="edgeStyle=orthogonalEdgeStyle;rounded=0;orthogonalLoop=1;jettySize=auto;html=1;entryX=0;entryY=0.5;entryDx=0;entryDy=0;" edge="1" parent="1" source="U2mL5AtgfMwPIUuoWqq_-1" target="U2mL5AtgfMwPIUuoWqq_-65">
          <mxGeometry relative="1" as="geometry" />
        </mxCell>
        <mxCell id="U2mL5AtgfMwPIUuoWqq_-1" value="连接池" style="rounded=1;whiteSpace=wrap;html=1;" vertex="1" parent="1">
          <mxGeometry x="230" y="160" width="120" height="60" as="geometry" />
        </mxCell>
        <mxCell id="U2mL5AtgfMwPIUuoWqq_-7" value="" style="edgeStyle=orthogonalEdgeStyle;rounded=0;orthogonalLoop=1;jettySize=auto;html=1;" edge="1" parent="1" source="U2mL5AtgfMwPIUuoWqq_-2" target="U2mL5AtgfMwPIUuoWqq_-6">
          <mxGeometry relative="1" as="geometry" />
        </mxCell>
        <mxCell id="U2mL5AtgfMwPIUuoWqq_-2" value="定时回收连接脚本" style="rounded=1;whiteSpace=wrap;html=1;" vertex="1" parent="1">
          <mxGeometry x="430" y="61" width="120" height="60" as="geometry" />
        </mxCell>
        <mxCell id="U2mL5AtgfMwPIUuoWqq_-14" value="" style="edgeStyle=orthogonalEdgeStyle;rounded=0;orthogonalLoop=1;jettySize=auto;html=1;" edge="1" parent="1" source="U2mL5AtgfMwPIUuoWqq_-6" target="U2mL5AtgfMwPIUuoWqq_-13">
          <mxGeometry relative="1" as="geometry" />
        </mxCell>
        <mxCell id="U2mL5AtgfMwPIUuoWqq_-25" value="否" style="edgeLabel;html=1;align=center;verticalAlign=middle;resizable=0;points=[];" vertex="1" connectable="0" parent="U2mL5AtgfMwPIUuoWqq_-14">
          <mxGeometry x="-0.05" y="4" relative="1" as="geometry">
            <mxPoint as="offset" />
          </mxGeometry>
        </mxCell>
        <mxCell id="U2mL5AtgfMwPIUuoWqq_-21" style="edgeStyle=orthogonalEdgeStyle;rounded=0;orthogonalLoop=1;jettySize=auto;html=1;entryX=0;entryY=0.5;entryDx=0;entryDy=0;" edge="1" parent="1" source="U2mL5AtgfMwPIUuoWqq_-6" target="U2mL5AtgfMwPIUuoWqq_-10">
          <mxGeometry relative="1" as="geometry">
            <Array as="points">
              <mxPoint x="630" y="171" />
            </Array>
          </mxGeometry>
        </mxCell>
        <mxCell id="U2mL5AtgfMwPIUuoWqq_-23" value="是" style="edgeLabel;html=1;align=center;verticalAlign=middle;resizable=0;points=[];" vertex="1" connectable="0" parent="U2mL5AtgfMwPIUuoWqq_-21">
          <mxGeometry x="-0.8897" y="-3" relative="1" as="geometry">
            <mxPoint as="offset" />
          </mxGeometry>
        </mxCell>
        <mxCell id="U2mL5AtgfMwPIUuoWqq_-6" value="当前请求&lt;br&gt;是否较多" style="rhombus;whiteSpace=wrap;html=1;rounded=1;" vertex="1" parent="1">
          <mxGeometry x="580" y="51" width="100" height="80" as="geometry" />
        </mxCell>
        <mxCell id="U2mL5AtgfMwPIUuoWqq_-8" value="回收空闲连接" style="whiteSpace=wrap;html=1;rounded=1;" vertex="1" parent="1">
          <mxGeometry x="880" y="61" width="120" height="60" as="geometry" />
        </mxCell>
        <mxCell id="U2mL5AtgfMwPIUuoWqq_-10" value="取消回收" style="whiteSpace=wrap;html=1;rounded=1;" vertex="1" parent="1">
          <mxGeometry x="880" y="141" width="120" height="60" as="geometry" />
        </mxCell>
        <mxCell id="U2mL5AtgfMwPIUuoWqq_-15" value="" style="edgeStyle=orthogonalEdgeStyle;rounded=0;orthogonalLoop=1;jettySize=auto;html=1;" edge="1" parent="1" source="U2mL5AtgfMwPIUuoWqq_-13" target="U2mL5AtgfMwPIUuoWqq_-8">
          <mxGeometry relative="1" as="geometry" />
        </mxCell>
        <mxCell id="U2mL5AtgfMwPIUuoWqq_-24" value="是" style="edgeLabel;html=1;align=center;verticalAlign=middle;resizable=0;points=[];" vertex="1" connectable="0" parent="U2mL5AtgfMwPIUuoWqq_-15">
          <mxGeometry x="-0.3333" y="4" relative="1" as="geometry">
            <mxPoint as="offset" />
          </mxGeometry>
        </mxCell>
        <mxCell id="U2mL5AtgfMwPIUuoWqq_-19" style="edgeStyle=orthogonalEdgeStyle;rounded=0;orthogonalLoop=1;jettySize=auto;html=1;entryX=0;entryY=0.5;entryDx=0;entryDy=0;" edge="1" parent="1" source="U2mL5AtgfMwPIUuoWqq_-13" target="U2mL5AtgfMwPIUuoWqq_-10">
          <mxGeometry relative="1" as="geometry">
            <Array as="points">
              <mxPoint x="770" y="171" />
            </Array>
          </mxGeometry>
        </mxCell>
        <mxCell id="U2mL5AtgfMwPIUuoWqq_-22" value="否" style="edgeLabel;html=1;align=center;verticalAlign=middle;resizable=0;points=[];" vertex="1" connectable="0" parent="U2mL5AtgfMwPIUuoWqq_-19">
          <mxGeometry x="-0.8267" y="2" relative="1" as="geometry">
            <mxPoint as="offset" />
          </mxGeometry>
        </mxCell>
        <mxCell id="U2mL5AtgfMwPIUuoWqq_-13" value="连接数 &amp;lt;= min" style="rhombus;whiteSpace=wrap;html=1;rounded=1;" vertex="1" parent="1">
          <mxGeometry x="720" y="51" width="100" height="80" as="geometry" />
        </mxCell>
        <mxCell id="U2mL5AtgfMwPIUuoWqq_-29" value="" style="edgeStyle=orthogonalEdgeStyle;rounded=0;orthogonalLoop=1;jettySize=auto;html=1;" edge="1" parent="1" source="U2mL5AtgfMwPIUuoWqq_-27" target="U2mL5AtgfMwPIUuoWqq_-28">
          <mxGeometry relative="1" as="geometry" />
        </mxCell>
        <mxCell id="U2mL5AtgfMwPIUuoWqq_-27" value="Redis代理" style="rounded=1;whiteSpace=wrap;html=1;" vertex="1" parent="1">
          <mxGeometry x="230" y="631" width="120" height="60" as="geometry" />
        </mxCell>
        <mxCell id="U2mL5AtgfMwPIUuoWqq_-41" value="" style="edgeStyle=orthogonalEdgeStyle;rounded=0;orthogonalLoop=1;jettySize=auto;html=1;" edge="1" parent="1" source="U2mL5AtgfMwPIUuoWqq_-28" target="U2mL5AtgfMwPIUuoWqq_-40">
          <mxGeometry relative="1" as="geometry" />
        </mxCell>
        <mxCell id="U2mL5AtgfMwPIUuoWqq_-28" value="魔术方法" style="rounded=1;whiteSpace=wrap;html=1;" vertex="1" parent="1">
          <mxGeometry x="430" y="631" width="120" height="60" as="geometry" />
        </mxCell>
        <mxCell id="U2mL5AtgfMwPIUuoWqq_-33" value="" style="edgeStyle=orthogonalEdgeStyle;rounded=0;orthogonalLoop=1;jettySize=auto;html=1;" edge="1" parent="1" source="U2mL5AtgfMwPIUuoWqq_-30" target="U2mL5AtgfMwPIUuoWqq_-32">
          <mxGeometry relative="1" as="geometry" />
        </mxCell>
        <mxCell id="U2mL5AtgfMwPIUuoWqq_-30" value="从Pool获取连接" style="rounded=1;whiteSpace=wrap;html=1;fontStyle=1" vertex="1" parent="1">
          <mxGeometry x="709" y="631" width="120" height="60" as="geometry" />
        </mxCell>
        <mxCell id="U2mL5AtgfMwPIUuoWqq_-35" value="" style="edgeStyle=orthogonalEdgeStyle;rounded=0;orthogonalLoop=1;jettySize=auto;html=1;" edge="1" parent="1" source="U2mL5AtgfMwPIUuoWqq_-32" target="U2mL5AtgfMwPIUuoWqq_-34">
          <mxGeometry relative="1" as="geometry" />
        </mxCell>
        <mxCell id="U2mL5AtgfMwPIUuoWqq_-37" value="" style="edgeStyle=orthogonalEdgeStyle;rounded=0;orthogonalLoop=1;jettySize=auto;html=1;" edge="1" parent="1" source="U2mL5AtgfMwPIUuoWqq_-32" target="U2mL5AtgfMwPIUuoWqq_-36">
          <mxGeometry relative="1" as="geometry" />
        </mxCell>
        <mxCell id="U2mL5AtgfMwPIUuoWqq_-32" value="连接是否&lt;br&gt;过期、错误" style="rhombus;whiteSpace=wrap;html=1;rounded=1;" vertex="1" parent="1">
          <mxGeometry x="869" y="621" width="120" height="80" as="geometry" />
        </mxCell>
        <mxCell id="U2mL5AtgfMwPIUuoWqq_-34" value="使用连接执行方法" style="whiteSpace=wrap;html=1;rounded=1;" vertex="1" parent="1">
          <mxGeometry x="1029" y="631" width="120" height="60" as="geometry" />
        </mxCell>
        <mxCell id="U2mL5AtgfMwPIUuoWqq_-38" style="edgeStyle=orthogonalEdgeStyle;rounded=0;orthogonalLoop=1;jettySize=auto;html=1;entryX=0.5;entryY=1;entryDx=0;entryDy=0;" edge="1" parent="1" source="U2mL5AtgfMwPIUuoWqq_-36" target="U2mL5AtgfMwPIUuoWqq_-30">
          <mxGeometry relative="1" as="geometry" />
        </mxCell>
        <mxCell id="U2mL5AtgfMwPIUuoWqq_-36" value="生成新连接" style="whiteSpace=wrap;html=1;rounded=1;" vertex="1" parent="1">
          <mxGeometry x="869" y="731" width="120" height="60" as="geometry" />
        </mxCell>
        <mxCell id="U2mL5AtgfMwPIUuoWqq_-39" value="放入Pool" style="text;html=1;align=center;verticalAlign=middle;resizable=0;points=[];autosize=1;strokeColor=none;fillColor=none;" vertex="1" parent="1">
          <mxGeometry x="769" y="731" width="70" height="30" as="geometry" />
        </mxCell>
        <mxCell id="U2mL5AtgfMwPIUuoWqq_-42" value="" style="edgeStyle=orthogonalEdgeStyle;rounded=0;orthogonalLoop=1;jettySize=auto;html=1;" edge="1" parent="1" source="U2mL5AtgfMwPIUuoWqq_-40" target="U2mL5AtgfMwPIUuoWqq_-30">
          <mxGeometry relative="1" as="geometry" />
        </mxCell>
        <mxCell id="U2mL5AtgfMwPIUuoWqq_-49" value="否" style="edgeLabel;html=1;align=center;verticalAlign=middle;resizable=0;points=[];" vertex="1" connectable="0" parent="U2mL5AtgfMwPIUuoWqq_-42">
          <mxGeometry x="-0.2683" y="-1" relative="1" as="geometry">
            <mxPoint y="1" as="offset" />
          </mxGeometry>
        </mxCell>
        <mxCell id="U2mL5AtgfMwPIUuoWqq_-46" value="" style="edgeStyle=orthogonalEdgeStyle;rounded=0;orthogonalLoop=1;jettySize=auto;html=1;" edge="1" parent="1" source="U2mL5AtgfMwPIUuoWqq_-40" target="U2mL5AtgfMwPIUuoWqq_-45">
          <mxGeometry relative="1" as="geometry" />
        </mxCell>
        <mxCell id="U2mL5AtgfMwPIUuoWqq_-48" value="是" style="edgeLabel;html=1;align=center;verticalAlign=middle;resizable=0;points=[];" vertex="1" connectable="0" parent="U2mL5AtgfMwPIUuoWqq_-46">
          <mxGeometry x="0.26" y="-1" relative="1" as="geometry">
            <mxPoint as="offset" />
          </mxGeometry>
        </mxCell>
        <mxCell id="U2mL5AtgfMwPIUuoWqq_-40" value="是否&lt;br&gt;非兼容命令" style="rhombus;whiteSpace=wrap;html=1;rounded=1;" vertex="1" parent="1">
          <mxGeometry x="580" y="621" width="90" height="80" as="geometry" />
        </mxCell>
        <mxCell id="U2mL5AtgfMwPIUuoWqq_-45" value="抛出异常" style="whiteSpace=wrap;html=1;rounded=1;" vertex="1" parent="1">
          <mxGeometry x="565" y="731" width="120" height="60" as="geometry" />
        </mxCell>
        <mxCell id="U2mL5AtgfMwPIUuoWqq_-53" value="" style="edgeStyle=orthogonalEdgeStyle;rounded=0;orthogonalLoop=1;jettySize=auto;html=1;" edge="1" parent="1" source="U2mL5AtgfMwPIUuoWqq_-50" target="U2mL5AtgfMwPIUuoWqq_-52">
          <mxGeometry relative="1" as="geometry" />
        </mxCell>
        <mxCell id="U2mL5AtgfMwPIUuoWqq_-50" value="获取连接" style="rounded=1;whiteSpace=wrap;html=1;" vertex="1" parent="1">
          <mxGeometry x="430" y="220" width="120" height="60" as="geometry" />
        </mxCell>
        <mxCell id="U2mL5AtgfMwPIUuoWqq_-55" value="" style="edgeStyle=orthogonalEdgeStyle;rounded=0;orthogonalLoop=1;jettySize=auto;html=1;" edge="1" parent="1" source="U2mL5AtgfMwPIUuoWqq_-52" target="U2mL5AtgfMwPIUuoWqq_-54">
          <mxGeometry relative="1" as="geometry" />
        </mxCell>
        <mxCell id="U2mL5AtgfMwPIUuoWqq_-63" value="否" style="edgeLabel;html=1;align=center;verticalAlign=middle;resizable=0;points=[];" vertex="1" connectable="0" parent="U2mL5AtgfMwPIUuoWqq_-55">
          <mxGeometry x="0.2" y="4" relative="1" as="geometry">
            <mxPoint as="offset" />
          </mxGeometry>
        </mxCell>
        <mxCell id="U2mL5AtgfMwPIUuoWqq_-62" style="edgeStyle=orthogonalEdgeStyle;rounded=0;orthogonalLoop=1;jettySize=auto;html=1;exitX=0.5;exitY=1;exitDx=0;exitDy=0;entryX=0;entryY=0.5;entryDx=0;entryDy=0;" edge="1" parent="1" source="U2mL5AtgfMwPIUuoWqq_-52" target="U2mL5AtgfMwPIUuoWqq_-61">
          <mxGeometry relative="1" as="geometry" />
        </mxCell>
        <mxCell id="U2mL5AtgfMwPIUuoWqq_-64" value="是" style="edgeLabel;html=1;align=center;verticalAlign=middle;resizable=0;points=[];" vertex="1" connectable="0" parent="U2mL5AtgfMwPIUuoWqq_-62">
          <mxGeometry x="-0.3084" y="-2" relative="1" as="geometry">
            <mxPoint as="offset" />
          </mxGeometry>
        </mxCell>
        <mxCell id="U2mL5AtgfMwPIUuoWqq_-52" value="连接数 &amp;lt; max" style="rhombus;whiteSpace=wrap;html=1;rounded=1;" vertex="1" parent="1">
          <mxGeometry x="580" y="210" width="100" height="80" as="geometry" />
        </mxCell>
        <mxCell id="U2mL5AtgfMwPIUuoWqq_-60" value="" style="edgeStyle=orthogonalEdgeStyle;rounded=0;orthogonalLoop=1;jettySize=auto;html=1;" edge="1" parent="1" source="U2mL5AtgfMwPIUuoWqq_-54" target="U2mL5AtgfMwPIUuoWqq_-58">
          <mxGeometry relative="1" as="geometry" />
        </mxCell>
        <mxCell id="U2mL5AtgfMwPIUuoWqq_-54" value="创建连接" style="whiteSpace=wrap;html=1;rounded=1;" vertex="1" parent="1">
          <mxGeometry x="710" y="220" width="120" height="60" as="geometry" />
        </mxCell>
        <mxCell id="U2mL5AtgfMwPIUuoWqq_-58" value="Push进chan" style="whiteSpace=wrap;html=1;rounded=1;" vertex="1" parent="1">
          <mxGeometry x="860" y="220" width="120" height="60" as="geometry" />
        </mxCell>
        <mxCell id="U2mL5AtgfMwPIUuoWqq_-61" value="从chan pop出连接" style="whiteSpace=wrap;html=1;rounded=1;" vertex="1" parent="1">
          <mxGeometry x="707" y="290" width="120" height="60" as="geometry" />
        </mxCell>
        <mxCell id="U2mL5AtgfMwPIUuoWqq_-65" value="释放" style="rounded=1;whiteSpace=wrap;html=1;" vertex="1" parent="1">
          <mxGeometry x="430" y="310" width="120" height="60" as="geometry" />
        </mxCell>
        <mxCell id="U2mL5AtgfMwPIUuoWqq_-69" value="" style="edgeStyle=orthogonalEdgeStyle;rounded=0;orthogonalLoop=1;jettySize=auto;html=1;entryX=0;entryY=0.5;entryDx=0;entryDy=0;" edge="1" parent="1" source="U2mL5AtgfMwPIUuoWqq_-67" target="U2mL5AtgfMwPIUuoWqq_-68">
          <mxGeometry relative="1" as="geometry" />
        </mxCell>
        <mxCell id="U2mL5AtgfMwPIUuoWqq_-72" style="edgeStyle=orthogonalEdgeStyle;rounded=0;orthogonalLoop=1;jettySize=auto;html=1;entryX=0;entryY=0.5;entryDx=0;entryDy=0;" edge="1" parent="1" source="U2mL5AtgfMwPIUuoWqq_-67" target="U2mL5AtgfMwPIUuoWqq_-70">
          <mxGeometry relative="1" as="geometry" />
        </mxCell>
        <mxCell id="U2mL5AtgfMwPIUuoWqq_-73" style="edgeStyle=orthogonalEdgeStyle;rounded=0;orthogonalLoop=1;jettySize=auto;html=1;entryX=0;entryY=0.5;entryDx=0;entryDy=0;" edge="1" parent="1" source="U2mL5AtgfMwPIUuoWqq_-67" target="U2mL5AtgfMwPIUuoWqq_-71">
          <mxGeometry relative="1" as="geometry" />
        </mxCell>
        <mxCell id="U2mL5AtgfMwPIUuoWqq_-67" value="Redis连接池" style="rounded=1;whiteSpace=wrap;html=1;" vertex="1" parent="1">
          <mxGeometry x="230" y="460" width="120" height="60" as="geometry" />
        </mxCell>
        <mxCell id="U2mL5AtgfMwPIUuoWqq_-68" value="单例获取RedisPool" style="whiteSpace=wrap;html=1;rounded=1;" vertex="1" parent="1">
          <mxGeometry x="430" y="390" width="120" height="60" as="geometry" />
        </mxCell>
        <mxCell id="U2mL5AtgfMwPIUuoWqq_-70" value="实现创建Redis&lt;br&gt;连接的方法" style="whiteSpace=wrap;html=1;rounded=1;" vertex="1" parent="1">
          <mxGeometry x="430" y="460" width="120" height="60" as="geometry" />
        </mxCell>
        <mxCell id="U2mL5AtgfMwPIUuoWqq_-71" value="实现销毁Redis&lt;br&gt;连接的方法" style="whiteSpace=wrap;html=1;rounded=1;" vertex="1" parent="1">
          <mxGeometry x="430" y="540" width="120" height="60" as="geometry" />
        </mxCell>
        <mxCell id="U2mL5AtgfMwPIUuoWqq_-74" value="" style="shape=flexArrow;endArrow=classic;html=1;rounded=0;" edge="1" parent="1">
          <mxGeometry width="50" height="50" relative="1" as="geometry">
            <mxPoint x="289.5" y="300" as="sourcePoint" />
            <mxPoint x="289.5" y="370" as="targetPoint" />
          </mxGeometry>
        </mxCell>
        <mxCell id="U2mL5AtgfMwPIUuoWqq_-76" value="" style="shape=flexArrow;endArrow=classic;html=1;rounded=0;" edge="1" parent="1">
          <mxGeometry width="50" height="50" relative="1" as="geometry">
            <mxPoint x="289.5" y="540" as="sourcePoint" />
            <mxPoint x="289.5" y="610" as="targetPoint" />
          </mxGeometry>
        </mxCell>
      </root>
    </mxGraphModel>
  </diagram>
</mxfile>
